<svg viewBox="0 0 64 64" xmlns="http://www.w3.org/2000/svg" fill="currentColor" aria-hidden="true">
  <path d="M40.5 10C50.1 10 58 16.7 58 24.9c0 6-4 11.3-10 14.1l2 7.3-8-5.2c-1.7.3-3.4.5-5.1.5-9.6 0-17.5-6.7-17.5-14.9S27.9 10 40.5 10zm-16 22a2.5 2.5 0 1 0 0-5 2.5 2.5 0 0 0 0 5zm11 0a2.5 2.5 0 1 0 0-5 2.5 2.5 0 0 0 0 5z"/>
  <path d="M23 50.5c-7.3-2.7-12-8.5-12-15 0-5.9 4.1-11.1 10.3-13.9C19.1 23.3 18 26 18 28.8c0 9 8.2 16.5 18.6 17.1-3.2 2.1-7.5 3.6-12.1 4.1l-7.5 5.3 2-4.8z" opacity=".6"/>
</svg>
